<svg width="0" height="0" class="hidden">
  <symbol fill="none" xmlns="http://www.w3.org/2000/svg" viewBox="0 0 19 18" id="arrow">
    <path d="M1.481 10.083h13.1L8.859 15.37a1.034 1.034 0 000 1.538 1.237 1.237 0 001.654 0l7.73-7.139a1.022 1.022 0 000-1.527l-7.718-7.15a1.219 1.219 0 00-.827-.317c-.31 0-.608.114-.827.317a1.022 1.022 0 000 1.527l5.712 5.298H1.48C.836 7.917.308 8.404.308 9s.528 1.083 1.173 1.083z" fill="#37474F"></path>
  </symbol>
  <symbol fill="none" xmlns="http://www.w3.org/2000/svg" viewBox="0 0 15 16" id="calendar">
    <path fill-rule="evenodd" clip-rule="evenodd" d="M3.387 3.664h1.444v-.76h5.775v.76h1.444v-.76h1.444v2.28H1.944v-2.28h1.443v.76zm-1.443 3.04v7.599h11.55v-7.6H1.944zm2.887-5.32h5.775V.626h1.444v.76h1.444c.797 0 1.444.68 1.444 1.52v11.398c0 .839-.647 1.52-1.444 1.52H1.944c-.798 0-1.444-.681-1.444-1.52V2.905c0-.84.646-1.52 1.444-1.52h1.443v-.76h1.444v.76z" fill="#565656"></path>
  </symbol>
  <symbol fill="none" xmlns="http://www.w3.org/2000/svg" viewBox="0 0 13 21" id="facebook">
    <path d="M3.484 20.726H7.79v-8.622h3.879l.426-4.284H7.79V5.656c0-.594.481-1.076 1.076-1.076h3.23V.274h-3.23a5.382 5.382 0 00-5.382 5.382V7.82H1.33l-.426 4.284h2.579v8.622z" fill="#3C5B9A"></path>
  </symbol>
  <symbol fill="none" xmlns="http://www.w3.org/2000/svg" viewBox="0 0 22 24" id="instagram">
    <path fill-rule="evenodd" clip-rule="evenodd" d="M15.085.875H6.56C3.03.875.167 3.888.167 7.605v8.974c0 3.717 2.862 6.73 6.393 6.73h8.525c3.532 0 6.394-3.013 6.394-6.73V7.605c0-3.717-2.862-6.73-6.394-6.73zM2.298 7.605c0-2.478 1.908-4.487 4.262-4.487h8.525c2.354 0 4.263 2.01 4.263 4.487v8.974c0 2.478-1.909 4.487-4.263 4.487H6.56c-2.354 0-4.262-2.009-4.262-4.487V7.605zm8.525 10.096c-2.943 0-5.328-2.511-5.328-5.609 0-3.097 2.385-5.608 5.328-5.608 2.942 0 5.328 2.51 5.328 5.608s-2.386 5.609-5.328 5.609zm0-2.244c1.765 0 3.197-1.506 3.197-3.365 0-1.858-1.431-3.365-3.197-3.365s-3.197 1.507-3.197 3.365c0 1.859 1.431 3.365 3.197 3.365zm5.328-7.852c.589 0 1.066-.502 1.066-1.121 0-.62-.477-1.122-1.066-1.122-.588 0-1.066.502-1.066 1.122 0 .62.477 1.121 1.066 1.121z" fill="#262626"></path>
  </symbol>
  <symbol fill="none" xmlns="http://www.w3.org/2000/svg" viewBox="0 0 37 37" id="services1">
    <path d="M28.204 8.756a1.512 1.512 0 00-.108 2.03c2.231 2.801 3.4 6.632 2.354 10.648-1.215 4.693-4.892 8.2-9.555 9.14-7.845 1.552-14.724-4.51-14.724-12.094 0-6.278 4.693-11.448 10.77-12.201v3.108a9.229 9.229 0 00-7.585 10.508c.6 4.016 3.939 7.247 7.97 7.74 5.6.692 10.386-3.678 10.386-9.155a9.167 9.167 0 00-1.585-5.17c-.523-.77-1.646-.815-2.308-.17l-.015.016c-.524.523-.57 1.339-.17 1.954a6.15 6.15 0 01.754 5.108 6.138 6.138 0 01-4.523 4.262 6.154 6.154 0 01-7.54-6c0-2.862 1.97-5.247 4.616-5.94v3.293c-.923.539-1.538 1.508-1.538 2.647a3.086 3.086 0 003.077 3.077 3.086 3.086 0 003.077-3.077 3.028 3.028 0 00-1.538-2.647V4.186c0-.6-.493-1.092-1.093-1.092C10.68 2.786 3.571 9.34 3.125 17.557c-.554 10.078 8.323 18.186 18.478 16.001a15.487 15.487 0 0011.925-11.801c1.092-4.862-.308-9.478-3.032-12.878-.569-.723-1.646-.77-2.292-.123z" fill="#37474F"></path>
  </symbol>
  <symbol fill="none" xmlns="http://www.w3.org/2000/svg" viewBox="0 0 37 37" id="services2">
    <path fill-rule="evenodd" clip-rule="evenodd" d="M5.653 27.493a3.854 3.854 0 003.854 3.854h17.986a3.854 3.854 0 003.854-3.854V9.507a3.854 3.854 0 00-3.854-3.854H9.507a3.854 3.854 0 00-3.854 3.854v17.986zm23.125 0c0 .71-.575 1.285-1.285 1.285H9.507c-.71 0-1.285-.575-1.285-1.285V9.507c0-.71.575-1.285 1.285-1.285h6.424v10.292h3.077l2.062-2.758 2.061 2.758h3.077V8.222h1.285c.71 0 1.285.575 1.285 1.285v17.986zM18.5 8.223h5.139v6.854l-2.57-3.437-2.569 3.437V8.222z" fill="#2D2D2D"></path>
  </symbol>
  <symbol fill="none" xmlns="http://www.w3.org/2000/svg" viewBox="0 0 24 30" id="services3">
    <path fill-rule="evenodd" clip-rule="evenodd" d="M16.126.083H3.192C1.82.083.708 1.261.708 2.713v23.67c0 1.452 1.112 2.63 2.484 2.63H20.58c1.372 0 2.483-1.178 2.483-2.63V7.427L16.127.083zM3.192 2.713h9.935v5.26c0 1.452 1.112 2.63 2.484 2.63h4.968v15.78H3.192V2.712zm12.42 5.26V3.258l4.452 4.715h-4.453zm.363 5.645l-5.331 5.645-2.848-3.015-1.756 1.86 4.604 4.874 7.087-7.505-1.756-1.86z" fill="#262626"></path>
  </symbol>
  <symbol fill="none" xmlns="http://www.w3.org/2000/svg" viewBox="0 0 25 29" id="services4">
    <path fill-rule="evenodd" clip-rule="evenodd" d="M15.096 1.387l8.966 8.966v18.39H15.07v-7.71a2.57 2.57 0 10-5.138 0v7.71H.938V10.094l8.708-8.708a3.854 3.854 0 015.45 0zm-11.59 9.772l7.957-7.955a1.285 1.285 0 011.816 0l8.214 8.213v14.756H17.64v-5.14a5.139 5.139 0 00-10.278 0v5.14H3.507V11.159z" fill="#2D2D2D"></path>
  </symbol>
  <symbol fill="none" xmlns="http://www.w3.org/2000/svg" viewBox="0 0 27 19" id="services5">
    <path d="M9.658.67h2.57c1.419 0 3.158.99 3.885 2.208l3.18 5.337h5.782a1.285 1.285 0 010 2.57h-5.904l-3.18 5.337c-.727 1.219-2.466 2.207-3.886 2.207H9.536l4.496-7.544h-8.98L3.21 13.936H.64L3.235 9.5v-.042L.665 5.064h2.57l1.843 3.151h9.076L9.658.671z" fill="#2D2D2D"></path>
  </symbol>
  <symbol fill="none" xmlns="http://www.w3.org/2000/svg" viewBox="0 0 18 18" id="time">
    <path fill-rule="evenodd" clip-rule="evenodd" d="M9 17.333A8.333 8.333 0 109 .667a8.333 8.333 0 000 16.666zm0-1.666A6.667 6.667 0 109 2.333a6.667 6.667 0 000 13.334zM8.167 4.833H6.5v5.834h5.833V9H8.167V4.833z" fill="#2D2D2D"></path>
  </symbol>
  <symbol fill="none" xmlns="http://www.w3.org/2000/svg" viewBox="0 0 31 31" id="twitter">
    <path fill-rule="evenodd" clip-rule="evenodd" d="M17.064 6.818c1.675-.33 3.179-.09 4.445.521.07.033.136.067.2.1l1.242-.502c1.278-.517 2.629.565 2.404 1.925.609.669.706 1.786-.117 2.522l-1.273 1.138c.015 1.4-.177 2.656-.766 4.055-1.051 2.494-2.559 4.37-4.403 5.675a11.374 11.374 0 01-4.103 1.823c-.909.204-1.68.267-2.246.253a11.45 11.45 0 01-4.748-.97c-.847-.37-1.469-.753-1.842-1.041-1.351-1.044-.582-3.206 1.124-3.163.328.009.635.004.922-.013-.543-.644-.832-1.292-.95-1.825a1.769 1.769 0 01-.033-.546 5.083 5.083 0 01-.316-.423c-.69-1.035-.894-2.099-.837-3.007l.008-.098.005-.045c.031-.264.116-.502.24-.709-.365-1.165-.282-2.336.062-3.439.112-.358.23-.639.326-.827a1.766 1.766 0 012.915-.348c1.288 1.506 2.56 2.401 3.774 2.835.15.054.295.099.434.136.386-2.438 1.99-3.896 3.533-4.027zm-1.81 6.095s-3.193.74-6.756-3.425c0 0-1.389 2.73 1.018 4.397 0 0-.786.139-1.435-.324 0 0-.278 2.36 2.592 3.286H9.145s.417 1.897 3.101 2.314c0 0-1.11 1.48-4.72 1.388 0 0 2.036 1.573 5.137 1.527 0 0 5.738.278 8.469-6.202.671-1.593.602-3.1.555-3.84l1.759-1.574-1.759.324s1.204-.88 1.343-1.712l-1.944.787s-1.458-1.32-3.934-.787c0 0-2.268.463-1.898 3.841z" fill="#37474F"></path>
  </symbol>
</svg>